<svg xmlns="http://www.w3.org/2000/svg" width="48" height="49" viewBox="0 0 48 49" fill="none">
    <path d="M8 38.9341V20.9341C8 20.3007 8.142 19.7007 8.426 19.1341C8.71 18.5674 9.10133 18.1007 9.6 17.7341L21.6 8.73408C22.3 8.20075 23.1 7.93408 24 7.93408C24.9 7.93408 25.7 8.20075 26.4 8.73408L38.4 17.7341C38.9 18.1007 39.292 18.5674 39.576 19.1341C39.86 19.7007 40.0013 20.3007 40 20.9341V38.9341C40 40.0341 39.608 40.9761 38.824 41.7601C38.04 42.5441 37.0987 42.9354 36 42.9341H30C29.4333 42.9341 28.9587 42.7421 28.576 42.3581C28.1933 41.9741 28.0013 41.4994 28 40.9341V30.9341C28 30.3674 27.808 29.8927 27.424 29.5101C27.04 29.1274 26.5653 28.9354 26 28.9341H22C21.4333 28.9341 20.9587 29.1261 20.576 29.5101C20.1933 29.8941 20.0013 30.3687 20 30.9341V40.9341C20 41.5007 19.808 41.9761 19.424 42.3601C19.04 42.7441 18.5653 42.9354 18 42.9341H12C10.9 42.9341 9.95867 42.5427 9.176 41.7601C8.39333 40.9774 8.00133 40.0354 8 38.9341Z" fill="#1794FA"/>
</svg>