<svg xmlns="http://www.w3.org/2000/svg" width="40" height="40" viewBox="0 0 40 40" fill="none">
    <path d="M39.6867 20.1454C39.6867 9.35618 30.8948 0.56424 20.1056 0.56424C9.31635 0.56424 0.524414 9.35618 0.524414 20.1454C0.524414 25.8239 2.97206 30.9346 6.84913 34.518C6.84913 34.5375 6.84913 34.5375 6.82954 34.5571C7.02536 34.7529 7.26033 34.9096 7.45614 35.0858C7.57363 35.1837 7.67153 35.2816 7.78902 35.3599C8.14148 35.6537 8.5331 35.9278 8.90515 36.2019C9.04221 36.2998 9.1597 36.3782 9.29677 36.4761C9.66881 36.7306 10.0604 36.9656 10.4716 37.181C10.6087 37.2593 10.7654 37.3572 10.9024 37.4355C11.294 37.6509 11.7053 37.8467 12.136 38.023C12.2927 38.1013 12.4493 38.1796 12.606 38.2384C13.0368 38.4146 13.4676 38.5713 13.8983 38.7083C14.055 38.7671 14.2116 38.8258 14.3683 38.865C14.8382 39.002 15.3082 39.1195 15.7781 39.237C15.9152 39.2762 16.0523 39.3153 16.2089 39.3349C16.7572 39.4524 17.3055 39.5307 17.8733 39.5895C17.9516 39.5895 18.03 39.6091 18.1083 39.6286C18.774 39.6874 19.4398 39.7265 20.1056 39.7265C20.7713 39.7265 21.4371 39.6874 22.0833 39.6286C22.1616 39.6286 22.2399 39.6091 22.3182 39.5895C22.8861 39.5307 23.4344 39.4524 23.9826 39.3349C24.1197 39.3153 24.2568 39.2566 24.4134 39.237C24.8834 39.1195 25.3729 39.0216 25.8233 38.865C25.9799 38.8062 26.1366 38.7475 26.2932 38.7083C26.724 38.5517 27.1744 38.4146 27.5856 38.2384C27.7422 38.1796 27.8989 38.1013 28.0555 38.023C28.4667 37.8467 28.8779 37.6509 29.2891 37.4355C29.4458 37.3572 29.5828 37.2593 29.7199 37.181C30.1115 36.946 30.5032 36.7306 30.8948 36.4761C31.0318 36.3977 31.1493 36.2998 31.2864 36.2019C31.678 35.9278 32.0501 35.6537 32.4025 35.3599C32.52 35.262 32.6179 35.1641 32.7354 35.0858C32.9508 34.9096 33.1662 34.7333 33.362 34.5571C33.362 34.5375 33.362 34.5375 33.3424 34.518C37.2391 30.9346 39.6867 25.8239 39.6867 20.1454ZM29.7787 29.8772C24.4722 26.3135 15.7781 26.3135 10.4325 29.8772C9.57091 30.4451 8.86598 31.1108 8.27855 31.8353C5.30221 28.8198 3.46159 24.6882 3.46159 20.1454C3.46159 10.9618 10.922 3.50141 20.1056 3.50141C29.2891 3.50141 36.7495 10.9618 36.7495 20.1454C36.7495 24.6882 34.9089 28.8198 31.9326 31.8353C31.3647 31.1108 30.6402 30.4451 29.7787 29.8772Z" fill="#1794FA"/>
    <path d="M20.1056 10.2171C16.0523 10.2171 12.7627 13.5068 12.7627 17.5601C12.7627 21.5351 15.8761 24.7659 20.0077 24.8834H20.1839H20.321H20.3602C24.3156 24.7464 27.429 21.5351 27.4486 17.5601C27.4486 13.5068 24.1589 10.2171 20.1056 10.2171Z" fill="#1794FA"/>
</svg>