<svg xmlns="http://www.w3.org/2000/svg" width="40" height="41" viewBox="0 0 40 41" fill="none">
  <path d="M39.7332 20.1768C39.7332 9.18476 30.8131 0.227539 19.8666 0.227539C8.9201 0.227539 0 9.18476 0 20.1768C0 25.9621 2.48332 31.1689 6.41691 34.8196C6.41691 34.8395 6.41691 34.8395 6.39704 34.8595C6.59571 35.059 6.83411 35.2186 7.03277 35.3981C7.15197 35.4978 7.2513 35.5976 7.3705 35.6774C7.7281 35.9766 8.12543 36.2559 8.5029 36.5352C8.64196 36.635 8.76116 36.7148 8.90023 36.8145C9.27769 37.0738 9.67503 37.3132 10.0922 37.5327C10.2313 37.6125 10.3902 37.7122 10.5293 37.792C10.9266 38.0115 11.3438 38.2109 11.7809 38.3905C11.9398 38.4703 12.0988 38.5501 12.2577 38.6099C12.6947 38.7895 13.1318 38.9491 13.5689 39.0887C13.7278 39.1486 13.8867 39.2084 14.0457 39.2483C14.5225 39.388 14.9993 39.5077 15.4761 39.6273C15.6151 39.6672 15.7542 39.7071 15.9131 39.7271C16.4694 39.8468 17.0257 39.9266 17.6018 39.9864C17.6813 39.9864 17.7607 40.0064 17.8402 40.0263C18.5157 40.0862 19.1911 40.1261 19.8666 40.1261C20.542 40.1261 21.2175 40.0862 21.8731 40.0263C21.9526 40.0263 22.032 40.0064 22.1115 39.9864C22.6876 39.9266 23.2439 39.8468 23.8002 39.7271C23.9392 39.7071 24.0783 39.6473 24.2372 39.6273C24.714 39.5077 25.2107 39.4079 25.6676 39.2483C25.8266 39.1885 25.9855 39.1286 26.1444 39.0887C26.5815 38.9291 27.0384 38.7895 27.4556 38.6099C27.6146 38.5501 27.7735 38.4703 27.9324 38.3905C28.3496 38.2109 28.7668 38.0115 29.184 37.792C29.3429 37.7122 29.482 37.6125 29.6211 37.5327C30.0184 37.2933 30.4157 37.0738 30.8131 36.8145C30.9521 36.7347 31.0713 36.635 31.2104 36.5352C31.6077 36.2559 31.9852 35.9766 32.3428 35.6774C32.462 35.5776 32.5613 35.4779 32.6805 35.3981C32.8991 35.2186 33.1176 35.039 33.3163 34.8595C33.3163 34.8395 33.3163 34.8395 33.2964 34.8196C37.2498 31.1689 39.7332 25.9621 39.7332 20.1768ZM29.6807 30.0916C24.2968 26.4608 15.4761 26.4608 10.0525 30.0916C9.17836 30.6701 8.46317 31.3484 7.86717 32.0865C4.84745 29.0143 2.97999 24.805 2.97999 20.1768C2.97999 10.8206 10.5492 3.21993 19.8666 3.21993C29.184 3.21993 36.7532 10.8206 36.7532 20.1768C36.7532 24.805 34.8857 29.0143 31.866 32.0865C31.2899 31.3484 30.5548 30.6701 29.6807 30.0916Z" fill="#D9D9D9"/>
  <path d="M19.8665 10.062C15.7541 10.062 12.4165 13.4135 12.4165 17.543C12.4165 21.5927 15.5753 24.8843 19.7671 25.004H19.9459H20.085H20.1247C24.1378 24.8644 27.2966 21.5927 27.3164 17.543C27.3164 13.4135 23.9789 10.062 19.8665 10.062Z" fill="#D9D9D9"/>
</svg>